<svg width="73" height="70" viewBox="0 0 73 70" fill="none" xmlns="http://www.w3.org/2000/svg">
<path fill-rule="evenodd" clip-rule="evenodd" d="M32.2161 22.9661H44.94C45.2609 24.9909 45.4605 27.0961 45.5532 29.223L45.5604 29.4196L48.0139 30.4393L47.9996 29.9732C47.9355 27.6133 47.7214 25.2606 47.372 22.9734H58.2914C59.1543 25.7777 59.5894 28.6912 59.5894 31.6339V32.0855L61.9287 31.1168L62 31.0876L61.993 30.8764C61.7932 22.5946 58.4768 14.8373 52.6569 9.02473C46.8299 3.20491 39.1342 0 31.0036 0C13.9077 0 0 14.2036 0 31.663C0 49.1226 13.9077 63.3333 31.0036 63.3333C32.7581 63.3333 34.5268 63.1804 36.2601 62.8745L36.5096 62.8308L36.5025 61.6872L36.2742 60.3616L35.9819 60.4126C34.7623 60.631 33.4928 60.7694 32.2089 60.8204V42.8293H36.5096V40.3527H32.2089V22.9661H32.2161ZM32.2161 20.4895V2.57846C37.5937 3.48166 42.3937 10.4815 44.4834 20.4895H32.2161ZM57.407 20.4894C54.0833 12.3243 47.1936 6.05279 38.906 3.6127C42.5648 7.19637 45.4748 13.3075 46.9369 20.4894H57.407ZM29.7912 42.8366V60.7477C24.4135 59.8445 19.6135 52.8447 17.5237 42.8366H29.7912ZM23.1082 59.7134C19.4494 56.137 16.5324 50.0185 15.0775 42.8366H4.60739C7.93099 51.0019 14.8135 57.2732 23.1082 59.7134ZM29.7912 22.9734V40.3674H17.0673C16.6252 37.5485 16.3968 34.6204 16.3968 31.6705C16.3968 28.7204 16.618 25.7923 17.0673 22.9734H29.7912ZM23.1082 3.6127C14.8207 6.05279 7.93099 12.3243 4.60739 20.4894H15.0775C16.5324 13.3075 19.4494 7.19637 23.1082 3.6127ZM17.5237 20.4895C19.6135 10.4815 24.4135 3.47437 29.7912 2.57846V20.4895H17.5237ZM3.71589 40.3601H14.6352C14.2001 37.5339 13.9862 34.6058 13.9791 31.6631C13.9791 28.7204 14.2001 25.7996 14.6352 22.9662H3.71589C2.8529 25.7778 2.41784 28.7059 2.41784 31.6631C2.41784 34.6204 2.8529 37.5412 3.71589 40.3601Z" fill="#1389A2"/>
<path d="M56.3453 68.5183C56.2741 68.5459 56.2084 68.571 56.1483 68.5937C56.0864 68.5683 56.0183 68.5402 55.9444 68.5092C55.5238 68.3327 54.9173 68.0655 54.187 67.7078C52.723 66.9907 50.7792 65.9184 48.8437 64.495C44.9204 61.6097 41.3158 57.5008 41.3158 52.1968V52.1419V52.0871V52.0322V51.9775V51.9227V51.868V51.8132V51.7586V51.7039V51.6493V51.5948V51.5402V51.4857V51.4312V51.3768V51.3224V51.268V51.2137V51.1594V51.1051V51.0509V50.9967V50.9425V50.8884V50.8343V50.7803V50.7263V50.6723V50.6184V50.5645V50.5106V50.4568V50.403V50.3493V50.2956V50.2419V50.1883V50.1347V50.0812V50.0277V49.9743V49.9209V49.8675V49.8142V49.7609V49.7076V49.6545V49.6013V49.5482V49.4951V49.4421V49.3892V49.3362V49.2833V49.2305V49.1777V49.125V49.0723V49.0196V48.9671V48.9145V48.862V48.8095V48.7571V48.7048V48.6525V48.6002V48.548V48.4959V48.4438V48.3917V48.3397V48.2877V48.2358V48.184V48.1322V48.0805V48.0288V47.9771V47.9255V47.874V47.8225V47.7711V47.7198V47.6684V47.6172V47.566V47.5148V47.4638V47.4127V47.3618V47.3108V47.26V47.2092V47.1584V47.1078V47.0571V47.0066V46.9561V46.9056V46.8552V46.8049V46.7546V46.7044V46.6543V46.6042V46.5542V46.5042V46.4543V46.4045V46.3547V46.305V46.2554V46.2058V46.1563V46.1068V46.0575V46.0081V45.9589V45.9097V45.8606V45.8115V45.7625V45.7136V45.6647V45.616V45.5672V45.5186V45.47V45.4215V45.373V45.3247V45.2764V45.2281V45.1799V45.1319V45.0838V45.0359V44.988V44.9402V44.8924V44.8448V44.7972V44.7497V44.7022V44.6548V44.6075V44.5603V44.5132V44.4661V44.4191V44.3722V44.3253V44.2785V44.2319V44.1852V44.1387V44.0922V44.0458V43.9995V43.9533V43.9071V43.8611V43.8151V43.7691V43.7233V43.6776V43.6319V43.5863V43.5408V43.4953V43.45V43.4047V43.3595V43.3144V43.2694V43.2245V43.1796V43.1348V43.0901V43.0455V43.001V42.9566V42.9122V42.868V42.8238V42.7797V42.7357V42.6917V42.6479V42.6042V42.5605V42.5169V42.4735V42.4301V42.3868V42.3435V42.3004V42.2574V42.2144V42.1716V42.1288V42.0861V42.0435V42.001V41.9586V41.9163V41.8741V41.832V41.79V41.748V41.7062V41.6644V41.6228V41.5812V41.5397V41.4984V41.4571V41.4159V41.3748V41.3338V41.293V41.2522V41.2115V41.1709V41.1304V41.09V41.0496V41.0094V40.9693V40.9293V40.8894V40.8496V40.8099V40.7703V40.7308V40.6914V40.6521V40.6129V40.5738V40.5348V40.4959V40.4571V40.4184V40.3798V40.3413V40.303V40.2647V40.2265V40.1884V40.1505V40.1126V40.0749V40.0373V39.9997V39.9623V39.925V39.8878V39.8507V39.8137V39.7768V39.74V39.7033V39.6668V39.6303V39.594V39.5578V39.5216V39.4856V39.4497V39.4139V39.3783V39.3427V39.3073V39.2719V39.2367V39.2016V39.1666V39.1317V39.0969V39.0623V39.0277V38.9933V38.959V38.9248V38.8907V38.8568V38.8229V38.7892V38.7556V38.7221V38.6887V38.6555V38.6223V38.5893V38.5564V38.5236V38.491V38.4584V38.426V38.3937V38.3615V38.3295V38.2975V38.2657V38.234V38.2025V38.171V38.1397V38.1085V38.0774V38.0464V38.0156V37.9849V37.9543V37.9239V37.8935V37.8633V37.8333V37.8033V37.7735V37.7438V37.7142V37.6848V37.6554V37.6263V37.5972V37.5683V37.5395V37.5108V37.4822V37.4538V37.4256V37.3974V37.3694V37.3415V37.3137V37.2861V37.2586V37.2312V37.204V37.1769V37.15V37.1231V37.0964V37.0699V37.0434V37.0171V36.991V36.965V36.9391V36.9133V36.8877V36.8622V36.8369V36.8117V36.7866V36.7617V36.7369V36.7122V36.6877V36.6634V36.6391V36.615V36.5911V36.5673V36.5436V36.52V36.4967V36.4734V36.4503V36.4273V36.4045V36.3818V36.3593V36.3369V36.3146V36.2925V36.2706V36.2487V36.2271V36.2055V36.1841V36.1629V36.1418V36.1209V36.1001V36.0794V36.0589V36.0385V36.0183V35.9983V35.9784V35.9698C41.4154 35.9603 41.5203 35.95 41.6303 35.9388C42.5977 35.8406 43.9613 35.675 45.5562 35.4048C48.5813 34.8924 52.4928 33.9949 56.1208 32.4376C59.7493 33.995 63.6645 34.8925 66.6932 35.4049C68.2899 35.675 69.6554 35.8406 70.6242 35.9389C70.735 35.9501 70.8406 35.9604 70.9409 35.97V35.9784V35.9983V36.0183V36.0385V36.0589V36.0794V36.1001V36.1209V36.1418V36.1629V36.1841V36.2055V36.2271V36.2487V36.2706V36.2925V36.3146V36.3369V36.3593V36.3818V36.4045V36.4273V36.4503V36.4734V36.4967V36.52V36.5436V36.5673V36.5911V36.615V36.6391V36.6634V36.6877V36.7122V36.7369V36.7617V36.7866V36.8117V36.8369V36.8622V36.8877V36.9133V36.9391V36.965V36.991V37.0171V37.0434V37.0699V37.0964V37.1231V37.15V37.1769V37.204V37.2312V37.2586V37.2861V37.3137V37.3415V37.3694V37.3974V37.4256V37.4538V37.4822V37.5108V37.5395V37.5683V37.5972V37.6263V37.6554V37.6848V37.7142V37.7438V37.7735V37.8033V37.8333V37.8633V37.8935V37.9239V37.9543V37.9849V38.0156V38.0464V38.0774V38.1085V38.1397V38.171V38.2025V38.234V38.2657V38.2975V38.3295V38.3615V38.3937V38.426V38.4584V38.491V38.5236V38.5564V38.5893V38.6223V38.6555V38.6887V38.7221V38.7556V38.7892V38.8229V38.8568V38.8907V38.9248V38.959V38.9933V39.0277V39.0623V39.0969V39.1317V39.1666V39.2016V39.2367V39.2719V39.3073V39.3427V39.3783V39.4139V39.4497V39.4856V39.5216V39.5578V39.594V39.6303V39.6668V39.7033V39.74V39.7768V39.8137V39.8507V39.8878V39.925V39.9623V39.9997V40.0373V40.0749V40.1126V40.1505V40.1884V40.2265V40.2647V40.303V40.3413V40.3798V40.4184V40.4571V40.4959V40.5348V40.5738V40.6129V40.6521V40.6914V40.7308V40.7703V40.8099V40.8496V40.8894V40.9293V40.9693V41.0094V41.0496V41.09V41.1304V41.1709V41.2115V41.2522V41.293V41.3338V41.3748V41.4159V41.4571V41.4984V41.5397V41.5812V41.6228V41.6644V41.7062V41.748V41.79V41.832V41.8741V41.9163V41.9586V42.001V42.0435V42.0861V42.1288V42.1716V42.2144V42.2574V42.3004V42.3435V42.3868V42.4301V42.4735V42.5169V42.5605V42.6042V42.6479V42.6917V42.7357V42.7797V42.8238V42.868V42.9122V42.9566V43.001V43.0455V43.0901V43.1348V43.1796V43.2245V43.2694V43.3144V43.3595V43.4047V43.45V43.4953V43.5408V43.5863V43.6319V43.6776V43.7233V43.7691V43.8151V43.8611V43.9071V43.9533V43.9995V44.0458V44.0922V44.1387V44.1852V44.2319V44.2785V44.3253V44.3722V44.4191V44.4661V44.5132V44.5603V44.6075V44.6548V44.7022V44.7497V44.7972V44.8448V44.8924V44.9402V44.988V45.0359V45.0838V45.1319V45.1799V45.2281V45.2764V45.3247V45.373V45.4215V45.47V45.5186V45.5672V45.616V45.6647V45.7136V45.7625V45.8115V45.8606V45.9097V45.9589V46.0081V46.0575V46.1068V46.1563V46.2058V46.2554V46.305V46.3547V46.4045V46.4543V46.5042V46.5542V46.6042V46.6543V46.7044V46.7546V46.8049V46.8552V46.9056V46.9561V47.0066V47.0571V47.1078V47.1584V47.2092V47.26V47.3108V47.3618V47.4127V47.4638V47.5148V47.566V47.6172V47.6684V47.7198V47.7711V47.8225V47.874V47.9255V47.9771V48.0288V48.0805V48.1322V48.184V48.2358V48.2877V48.3397V48.3917V48.4438V48.4959V48.548V48.6002V48.6525V48.7048V48.7571V48.8095V48.862V48.9145V48.9671V49.0196V49.0723V49.125V49.1777V49.2305V49.2833V49.3362V49.3892V49.4421V49.4951V49.5482V49.6013V49.6545V49.7076V49.7609V49.8142V49.8675V49.9209V49.9743V50.0277V50.0812V50.1347V50.1883V50.2419V50.2956V50.3493V50.403V50.4568V50.5106V50.5645V50.6184V50.6723V50.7263V50.7803V50.8343V50.8884V50.9425V50.9967V51.0509V51.1051V51.1594V51.2137V51.268V51.3224V51.3768V51.4312V51.4857V51.5402V51.5948V51.6493V51.7039V51.7586V51.8132V51.868V51.9227V51.9775V52.0322V52.0871V52.1419V52.1968C70.9409 57.7846 67.3219 61.892 63.4248 64.6918C61.4952 66.0781 59.557 67.098 58.097 67.7718C57.3688 68.1079 56.7642 68.3557 56.3453 68.5183Z" fill="white" stroke="#1389A2" stroke-width="2.63158"/>
<path fill-rule="evenodd" clip-rule="evenodd" d="M50.3844 50.1878L48.6667 52.0149L52.8187 56.2955C53.0482 56.5284 53.3611 56.6667 53.6811 56.6667C53.7088 56.6667 53.7297 56.6667 53.7575 56.6667C54.1053 56.6448 54.4253 56.4702 54.6408 56.1862L62.6041 45.6816L62.6667 45.5942L60.7471 44L53.5629 53.4709L50.3844 50.1878Z" fill="#1389A2"/>
</svg>
