<svg width="88" height="66" viewBox="0 0 88 66" fill="none" xmlns="http://www.w3.org/2000/svg">
<path d="M44.4092 0C56.7596 5.54884 71.8442 6.3537 71.8442 6.3537V16.6246L69.589 19.1053V8.43598C69.4237 8.4203 69.2499 8.40332 69.0678 8.38495C67.4205 8.21874 65.0988 7.93858 62.3837 7.48147C57.235 6.61464 50.5788 5.09643 44.4092 2.46185C38.2406 5.09629 31.5908 6.61452 26.448 7.4814C23.7362 7.93852 21.4176 8.2187 19.7726 8.38492C19.5919 8.40318 19.4193 8.42007 19.2551 8.43567V25.7082H17V6.3537C17 6.3537 32.0588 5.54884 44.4092 0Z" fill="#1389A2"/>
<path d="M65.9631 47.7682L69.7483 45.5417C68.3406 48.654 66.33 51.3851 64.0492 53.7524L61.4995 53.1149C63.1686 51.5077 64.696 49.7275 65.9631 47.7682Z" fill="#1389A2"/>
<path d="M46.6368 62.6902C45.8976 63.0104 45.2703 63.2628 44.788 63.4491C44.6682 63.4954 44.5575 63.5375 44.4562 63.5756C44.3517 63.533 44.237 63.4857 44.1127 63.4338C43.3978 63.1353 42.3668 62.6834 41.1254 62.0783C38.6366 60.8653 35.3326 59.0515 32.0428 56.644C25.3717 51.762 19.2551 44.8179 19.2551 35.8631V34.2776H17V35.8631C17 55.9701 44.4221 65.9844 44.4221 65.9844C44.4221 65.9844 47.4216 64.9903 51.4366 62.8988L46.6368 62.6902Z" fill="#1389A2"/>
<path d="M0.600066 23.6723C0.623854 23.6529 0.656791 23.6374 0.669599 23.6121C0.687898 23.5772 0.689728 23.5326 0.700707 23.4918C0.837944 22.9989 1.22953 22.6671 1.7126 22.6632C2.11516 22.6613 2.5159 22.6807 2.91846 22.7001C3.41434 22.7253 3.9084 22.7855 4.40062 22.8573C5.22222 22.9737 6.03283 23.1445 6.83795 23.3502C8.26522 23.715 9.65772 24.2001 11.0319 24.7415C11.837 25.0598 12.6349 25.3975 13.4436 25.7079C14.622 26.162 15.8242 26.5385 17.0521 26.8121C18.3146 27.0935 19.5882 27.2449 20.8819 27.1963C22.3275 27.142 23.7053 26.7985 25.0173 26.1523C25.8499 25.7429 26.6257 25.2325 27.3723 24.6678C28.1042 24.1147 28.8051 23.5151 29.5059 22.9174C30.3165 22.2246 31.1289 21.5338 31.9816 20.8992C32.9405 20.1871 33.9432 19.5603 35.0246 19.0771C36.1207 18.588 37.257 18.2601 38.4354 18.0893C39.5809 17.9224 40.7301 17.9147 41.8828 17.9826C42.4739 18.0175 43.0631 18.0757 43.6486 18.1611C44.5635 18.295 45.4656 18.4891 46.3623 18.7278C47.5864 19.0557 48.7868 19.4652 49.9835 19.8824C51.3083 20.3442 52.6349 20.8042 53.9817 21.1903C55.2296 21.5474 56.4904 21.8482 57.7658 22.0752C58.699 22.2421 59.6359 22.3779 60.5782 22.4789C61.4419 22.5701 62.3074 22.6341 63.1729 22.6826C63.7804 22.7156 64.3879 22.7331 64.9936 22.7137C65.7365 22.6904 66.4721 22.5992 67.193 22.4032C68.269 22.1102 69.2095 21.5532 70.0293 20.7595C70.5435 20.2627 71.0046 19.7116 71.4639 19.1605C72.0384 18.4716 72.6039 17.773 73.1967 17.1016C74.9332 15.1358 76.9753 13.6163 79.2754 12.483C79.8481 12.2017 80.4264 11.9358 81.0009 11.6603C81.0778 11.6234 81.1473 11.571 81.2205 11.5244C81.237 11.5244 81.2516 11.5244 81.2681 11.5244C81.2699 11.6331 81.2718 11.7418 81.2718 11.8504C81.2718 12.9624 81.2718 14.0743 81.2718 15.1862C81.2718 15.2774 81.2718 15.3687 81.2718 15.4696C81.3431 15.5142 81.4108 15.555 81.4767 15.5938C81.8317 15.8033 82.1812 16.0246 82.5032 16.2885C84.1318 17.6236 85.1052 19.3313 85.3706 21.4251C85.3944 21.6095 85.4602 21.7259 85.5901 21.8385C86.172 22.3391 86.7484 22.8456 87.3248 23.3521C87.495 23.5015 87.6615 23.6568 87.8299 23.8081C87.8372 23.8683 87.8408 23.909 87.8482 23.9692C87.753 24.1225 87.689 24.2952 87.6139 24.4582C86.8106 26.1834 86.011 27.9085 85.2095 29.6337C85.1089 29.851 85.0083 30.0684 84.9076 30.2857C84.8875 30.3303 84.8619 30.373 84.8326 30.4274C84.2269 30.3672 83.6267 30.2857 83.0247 30.212C82.43 30.1382 81.8335 30.0684 81.2388 29.9966C80.635 29.9248 80.033 29.851 79.4291 29.7792C79.3834 29.8258 79.3431 29.8627 79.3065 29.9054C77.0522 32.6454 74.8033 35.3913 72.6295 38.2032C72.1208 38.861 71.6395 39.5422 71.1601 40.2252C70.549 41.0946 69.8921 41.9252 69.1748 42.7014C68.3147 43.6329 67.3742 44.4537 66.2946 45.0883C65.5261 45.5404 64.7118 45.88 63.8774 46.1595C63.0961 46.4214 62.3092 46.6679 61.5297 46.9318C59.57 47.5935 57.7475 48.5541 56.0293 49.7476C55.8042 49.9028 55.5828 50.0639 55.3595 50.2211C55.3156 50.2521 55.2662 50.2754 55.2022 50.3123C54.9533 49.5574 54.7099 48.818 54.4648 48.067C54.5379 48.0108 54.6002 47.9622 54.6642 47.9157C56.7337 46.4583 58.946 45.3192 61.3266 44.5566C62.0512 44.3237 62.774 44.0889 63.4931 43.8405C64.1537 43.6115 64.7905 43.3185 65.3925 42.9478C66.1263 42.4957 66.7813 41.9349 67.387 41.3061C68.15 40.5144 68.8344 39.6489 69.4657 38.7388C70.1354 37.7743 70.8399 36.8351 71.5609 35.9153C73.8079 33.0471 76.1153 30.2314 78.4355 27.4292C78.4557 27.404 78.4794 27.3807 78.5105 27.3438C78.5636 27.3438 78.6258 27.338 78.6862 27.3458C79.2974 27.4195 79.9085 27.4991 80.5179 27.5728C80.9955 27.631 81.473 27.6854 81.9525 27.7436C82.43 27.8018 82.9076 27.862 83.3852 27.9202C83.431 27.926 83.4785 27.9279 83.517 27.9299C83.5334 27.9202 83.5389 27.9163 83.5462 27.9105C83.5572 27.9008 83.5755 27.8949 83.5572 27.8697C82.8985 27.0683 83.0943 25.8418 84.033 25.4634C84.9424 25.0967 84.8546 25.1588 84.8966 24.9977C84.624 24.7027 84.3495 24.4039 84.0732 24.105C83.8024 23.812 83.5316 23.5209 83.2535 23.2182C83.2516 23.1309 83.2498 23.0397 83.2461 22.9485C83.237 22.6147 83.2407 22.279 83.2169 21.9452C83.1235 20.6741 82.6295 19.5991 81.7786 18.7045C81.1949 18.0893 80.5105 17.6313 79.7567 17.2917C79.5389 17.1928 79.323 17.0958 79.0997 16.9948C79.0723 16.696 79.0906 16.4049 79.0869 16.1138C79.0833 15.8227 79.0851 15.5317 79.0833 15.2445C78.9863 15.2134 78.9332 15.2774 78.8747 15.3124C78.2544 15.6811 77.6578 16.0886 77.0851 16.5349C76.0439 17.3461 75.1144 18.2853 74.2562 19.306C73.7164 19.9503 73.1876 20.6043 72.6478 21.2485C72.1555 21.8365 71.634 22.3954 71.0576 22.8941C70 23.812 68.7978 24.4097 67.4675 24.7241C66.6404 24.9181 65.8042 25.0152 64.957 25.0346C63.978 25.0579 63.0009 25.0132 62.0256 24.9375C61.5389 24.8987 61.0503 24.8657 60.5636 24.8153C60.0695 24.7648 59.5755 24.7027 59.0832 24.6329C58.5361 24.5553 57.9908 24.4699 57.4455 24.3767C56.2159 24.1652 54.9991 23.8799 53.795 23.5442C52.3751 23.1503 50.9808 22.6749 49.5864 22.1917C48.4702 21.8035 47.3559 21.4135 46.2195 21.0914C45.2973 20.8294 44.3659 20.614 43.4199 20.4743C42.3568 20.3171 41.2863 20.2395 40.2122 20.2647C38.1482 20.3171 36.1225 20.9186 34.3531 22.0442C33.4492 22.6205 32.6001 23.2784 31.7749 23.9711C31.0082 24.6154 30.247 25.2674 29.4766 25.9059C28.6733 26.5695 27.8371 27.1847 26.9496 27.7164C25.795 28.4073 24.5763 28.9215 23.279 29.2145C22.6074 29.3659 21.9267 29.4571 21.2405 29.5017C20.5928 29.5444 19.9469 29.5308 19.3009 29.4843C18.6239 29.4377 17.9505 29.3445 17.2826 29.2184C15.279 28.84 13.3521 28.1899 11.4619 27.404C10.1774 26.8703 8.88187 26.3697 7.55525 25.9583C6.59276 25.6614 5.62112 25.413 4.63118 25.2403C4.00172 25.1297 3.36677 25.0443 2.72816 25.0132C2.40428 24.9977 2.08223 24.9822 1.75835 24.9725C1.23319 24.955 0.843433 24.6445 0.695217 24.1089C0.675089 24.0352 0.66228 23.9614 0.598236 23.9149C0.600066 23.8392 0.600066 23.7557 0.600066 23.6723Z" fill="#1389A2"/>
<path d="M49.2644 61.1248C49.2553 61.1131 49.2461 61.0937 49.2351 61.0898C49.0229 61.0064 48.8911 60.8395 48.7795 60.6377C47.8243 58.8951 46.8637 57.1544 45.9067 55.4137C44.0256 51.9964 42.1445 48.581 40.269 45.1618C40.1354 44.9192 39.9634 44.7504 39.7292 44.6242C37.9158 43.6365 36.1793 42.5168 34.5361 41.2341C33.3211 40.2851 32.172 39.2528 31.0997 38.1253C29.451 36.3885 28.0292 34.4654 26.8527 32.3386C26.8124 32.2668 26.7703 32.195 26.7374 32.1193C26.6093 31.8224 26.6441 31.3838 27.0027 31.149C27.2497 30.986 27.5077 30.8385 27.7712 30.7085C28.0896 30.5513 28.4483 30.6736 28.6495 30.9802C28.6861 31.0345 28.7154 31.0947 28.7484 31.1509C29.7859 33.0216 31.0283 34.7235 32.4647 36.2682C33.8206 37.7275 35.3138 39.0121 36.9112 40.1609C38.3165 41.17 39.7841 42.0646 41.3028 42.8641C41.5224 42.9806 41.7072 43.161 41.8298 43.3861C44.5416 48.3229 47.2571 53.2558 49.9725 58.1887C50.0165 58.2683 50.0586 58.3478 50.1043 58.4255C50.2434 58.6641 50.4501 58.7845 50.7118 58.8019C50.774 58.8058 50.8381 58.8039 50.9003 58.8039C53.5755 58.8039 56.2489 58.8039 58.9241 58.8039C58.9863 58.8039 59.0503 58.8058 59.1125 58.8019C59.4858 58.7748 59.7676 58.5011 59.8042 58.1053C59.8225 57.8976 59.8225 57.6861 59.8042 57.4785C59.7713 57.1195 59.5444 56.8691 59.2022 56.8032C58.8454 56.7333 58.4867 56.6751 58.1299 56.611C57.3907 56.483 56.6514 56.3549 55.9122 56.2268C55.1967 56.1026 54.4813 55.9804 53.764 55.8562C53.4456 55.8018 53.1272 55.7436 52.807 55.6951C52.4501 55.6408 52.2287 55.437 52.1116 55.0722C51.5846 53.444 51.0485 51.8179 50.516 50.1897C49.5627 47.275 48.6093 44.3603 47.6505 41.4475C47.5535 41.1526 47.5169 40.846 47.4675 40.5413C47.2937 39.4701 47.1253 38.397 46.957 37.3258C46.7758 36.1789 46.5965 35.032 46.4172 33.8871C46.3843 33.6717 46.344 33.4583 46.3184 33.2429C46.2635 32.7752 46.4886 32.4414 46.9204 32.3483C47.1528 32.2997 47.3852 32.2551 47.6194 32.2182C48.0165 32.1561 48.3934 32.4356 48.4739 32.8528C48.5398 33.2021 48.5892 33.5572 48.6459 33.9104C48.7813 34.7681 48.9186 35.6259 49.054 36.4836C49.1875 37.3238 49.3193 38.166 49.4529 39.0063C49.5316 39.5012 49.6066 39.9979 49.6871 40.4928C49.7072 40.615 49.7548 40.8091 49.7932 40.9255C50.7447 43.8228 51.6981 46.72 52.6496 49.6173C53.0046 50.6982 53.3596 51.781 53.7164 52.8619C53.7365 52.9259 53.7566 52.988 53.7786 53.0521C53.8829 53.3625 54.0823 53.5488 54.3952 53.6032C55.0485 53.7138 55.7017 53.8302 56.355 53.9447C57.1803 54.0883 58.0037 54.23 58.8289 54.3736C59.5517 54.4997 60.2763 54.6239 60.9991 54.75C61.162 54.7792 61.3285 54.8005 61.4877 54.8451C61.7438 54.9189 61.9067 55.1052 61.9799 55.373C62.0055 55.468 62.0037 55.5709 62.0037 55.6718C62.0055 56.7178 62.0055 57.7637 62.0055 58.8097C62.0055 59.3123 62.0055 59.813 62.0055 60.3156C62.0055 60.4242 61.9982 60.531 61.9598 60.6357C61.8957 60.8046 61.7896 60.9346 61.6414 61.0258C61.5883 61.0588 61.5352 61.0918 61.4822 61.1248C57.4071 61.1248 53.3358 61.1248 49.2644 61.1248Z" fill="#1389A2"/>
<path d="M39.5151 56.7936C38.6239 56.7936 37.7328 56.7936 36.8398 56.7917C36.7301 56.7917 36.6203 56.7819 36.5105 56.7664C36.1024 56.7082 35.698 56.3046 35.6797 55.7535C35.6779 55.703 35.6797 55.6525 35.6797 55.6021C35.6797 54.234 35.6797 52.8659 35.6797 51.4978C35.6797 51.4144 35.6852 51.329 35.7035 51.2475C35.8078 50.807 36.0695 50.5256 36.4922 50.4286C36.9387 50.3257 37.3888 50.2345 37.8371 50.1414C38.3714 50.0288 38.9076 49.9298 39.4382 49.8056C39.8042 49.7203 40.2982 49.86 40.5526 50.3218C40.6313 50.4674 40.7136 50.609 40.7465 50.7759C40.8636 51.3853 40.5233 51.9383 39.9432 52.0742C39.7584 52.1169 39.5718 52.1498 39.387 52.1887C39.1546 52.2372 38.9222 52.2837 38.6916 52.3361C38.2543 52.437 37.9542 52.7747 37.8865 53.2424C37.8005 53.8226 38.2214 54.397 38.7722 54.4475C38.8582 54.4552 38.946 54.4533 39.032 54.4533C40.0567 54.4533 41.0832 54.4513 42.1079 54.4552C42.2324 54.4552 42.3586 54.4746 42.483 54.4921C42.5453 54.5018 42.6038 54.529 42.6624 54.5523C43.043 54.7094 43.4309 55.3634 43.3467 55.8757C43.2735 56.3259 42.9497 56.6849 42.5215 56.7625C42.4135 56.782 42.3019 56.7878 42.1921 56.7878C41.2973 56.7936 40.4062 56.7936 39.5151 56.7936Z" fill="#1389A2"/>
<path d="M52.3824 41.4746C52.3788 41.3018 52.4318 41.1 52.5434 40.9234C52.8417 40.4461 53.1436 39.9726 53.451 39.501C53.6011 39.2681 53.8261 39.1013 54.0823 39.0275C54.8637 38.7985 55.645 38.5657 56.4263 38.3347C57.01 38.162 57.5956 37.9913 58.1793 37.8205C58.4538 37.739 58.7264 37.7681 58.9972 37.9117C59.1272 37.9796 59.2424 38.0805 59.3321 38.2028C59.8335 38.8975 59.5096 39.7746 58.8618 40.0288C58.7594 40.0696 58.6514 40.0987 58.5453 40.1297C57.559 40.4208 56.5727 40.71 55.5864 40.9991C55.5553 41.0088 55.5261 41.0185 55.4949 41.0263C55.1784 41.1058 54.9423 41.298 54.7685 41.5852C54.6514 41.7792 54.527 41.9675 54.4062 42.1557C54.2635 42.3769 54.0659 42.5574 53.8261 42.6389C53.0906 42.8873 52.3733 42.3206 52.3824 41.4746Z" fill="#1389A2"/>
<path d="M22.4318 44.9677C21.5717 44.9677 20.7117 44.9677 19.8517 44.9677C19.7803 44.9677 19.709 44.9696 19.6394 44.9638C19.343 44.9405 19.107 44.7115 19.0539 44.403C19.0502 44.3777 19.0447 44.3525 19.0447 44.3292C19.0429 43.9857 19.0411 43.6442 19.0447 43.3007C19.0466 43.227 19.063 43.1494 19.0905 43.0814C19.1893 42.8272 19.3741 42.6875 19.6285 42.6526C19.698 42.6429 19.7694 42.6468 19.8407 42.6468C21.5681 42.6468 23.2954 42.6468 25.0228 42.6468C25.2662 42.6468 25.515 42.6235 25.7163 43.0116C25.795 43.161 25.8316 43.3337 25.8334 43.5045C25.8371 43.7665 25.8316 44.0304 25.8316 44.2923C25.8316 44.6766 25.5113 44.9735 25.1984 44.9657C25.1362 44.9638 25.0722 44.9657 25.01 44.9657C24.1518 44.9677 23.2918 44.9677 22.4318 44.9677Z" fill="#1389A2"/>
<path d="M21.3046 49.4293C21.4656 49.4293 21.6284 49.4255 21.7895 49.4313C22.1207 49.4449 22.3842 49.7282 22.3951 50.0794C22.4043 50.421 22.3988 50.7644 22.397 51.106C22.3951 51.5135 22.0548 51.7871 21.7364 51.7464C21.4455 51.7095 21.1545 51.7114 20.8636 51.7464C20.5726 51.7813 20.2195 51.5407 20.2085 51.104C20.2012 50.7664 20.1993 50.4287 20.2085 50.0911C20.2195 49.7301 20.4921 49.441 20.8325 49.4293C20.9898 49.4235 21.1472 49.4293 21.3046 49.4293Z" fill="#1389A2"/>
<path d="M11.3905 44.9677C11.2405 44.9677 11.0905 44.9638 10.9404 44.9677C10.622 44.9793 10.3 44.6921 10.2945 44.3079C10.2908 43.9741 10.289 43.6384 10.2945 43.3046C10.3 42.9476 10.5891 42.6546 10.9203 42.6487C11.2277 42.6429 11.5351 42.639 11.8425 42.6487C12.2012 42.6604 12.4665 42.9418 12.4793 43.3221C12.4884 43.6481 12.4866 43.9741 12.4811 44.3001C12.4738 44.696 12.1463 44.9774 11.8407 44.9677C11.6888 44.9638 11.5388 44.9677 11.3905 44.9677Z" fill="#1389A2"/>
<path d="M16.8508 43.8169C16.8508 43.976 16.849 44.1352 16.8508 44.2943C16.8563 44.7969 16.3055 45.1443 15.9395 44.8745C15.8206 44.7872 15.6651 44.7756 15.5534 44.8745C15.2698 45.1287 14.677 44.8532 14.666 44.2924C14.6587 43.9741 14.6587 43.6578 14.666 43.3395C14.6751 42.9475 14.9405 42.6642 15.3119 42.6506C15.612 42.6409 15.9103 42.6487 16.2104 42.6487C16.5562 42.6487 16.8618 42.9669 16.8508 43.3415C16.8471 43.5006 16.8508 43.6578 16.8508 43.8169Z" fill="#1389A2"/>
<path d="M62.6862 16.0964C62.0164 16.0964 61.3467 16.0964 60.677 16.0964C60.6148 16.0964 60.5507 16.0983 60.4885 16.0945C60.1464 16.0731 59.8774 15.7937 59.8682 15.4308C59.8591 15.1087 59.8591 14.7846 59.8682 14.4624C59.8719 14.3091 59.9158 14.1578 60.0073 14.0375C60.2104 13.7638 60.4538 13.7755 60.6916 13.7755C62.0164 13.7755 63.3394 13.7755 64.6642 13.7755C64.8948 13.7755 65.1253 13.7619 65.3394 14.0549C65.4364 14.1869 65.4858 14.3499 65.4931 14.5168C65.5059 14.8137 65.5041 15.1125 65.4913 15.4094C65.473 15.8247 65.1949 16.0964 64.7923 16.0983C64.0896 16.1003 63.3888 16.0964 62.6862 16.0964Z" fill="#1389A2"/>
<path d="M56.5654 16.0963C56.4245 16.0963 56.2818 16.0924 56.1409 16.0963C55.8628 16.106 55.5462 15.8634 55.4986 15.5122C55.4895 15.4384 55.4822 15.3628 55.4822 15.289C55.4803 15.0562 55.4785 14.8213 55.4822 14.5885C55.484 14.4895 55.4913 14.3867 55.5133 14.2916C55.5773 14.018 55.8024 13.8006 56.0677 13.787C56.4044 13.7696 56.7447 13.7696 57.0814 13.7851C57.3486 13.7967 57.5718 14.0044 57.645 14.278C57.667 14.3576 57.6779 14.441 57.6798 14.5244C57.6834 14.8 57.6834 15.0756 57.6798 15.3511C57.6779 15.4326 57.667 15.518 57.645 15.5976C57.57 15.8809 57.3358 16.0808 57.0595 16.0963C56.8948 16.1021 56.7301 16.0944 56.5654 16.0963Z" fill="#1389A2"/>
</svg>
