<svg width="76" height="75" viewBox="0 0 76 75" fill="none" xmlns="http://www.w3.org/2000/svg">
<path d="M7.11171 74.9623H6.97542C5.14755 74.9146 3.40844 74.1641 2.11991 72.8667C1.46619 72.2454 0.942312 71.5005 0.578631 70.6752C0.21495 69.8499 0.0187053 68.9606 0.00127318 68.0589C-0.0161589 67.1572 0.145568 66.261 0.477079 65.4222C0.808591 64.5835 1.30329 63.8189 1.9325 63.1728L14.3524 50.7699C14.4796 50.6451 14.5594 50.48 14.5781 50.3027C14.5967 50.1255 14.5531 49.9473 14.4546 49.7988C10.6641 43.582 9.03493 36.2866 9.82058 29.0479C10.7023 21.0555 14.5045 13.6703 20.4974 8.30932C26.4904 2.94836 34.252 -0.010674 42.2929 2.89334e-05C48.7608 -0.00376121 55.0846 1.91103 60.4641 5.50214C65.8435 9.09326 70.0369 14.1993 72.5137 20.1743C74.9905 26.1492 75.6394 32.7246 74.3783 39.0684C73.1172 45.4123 70.0027 51.2395 65.4289 55.8128C60.2256 61.0038 53.4263 64.2922 46.1265 65.1482C38.8266 66.0043 31.451 64.3783 25.1878 60.532C25.0668 60.4517 24.9242 60.4101 24.779 60.4128C24.6752 60.4106 24.5721 60.4291 24.4756 60.4672C24.3791 60.5052 24.2911 60.562 24.2167 60.6343L11.8139 73.0371C11.1996 73.6525 10.469 74.1397 9.66465 74.4702C8.86033 74.8007 7.99831 74.968 7.12875 74.9623H7.11171ZM9.7865 60.1913C9.684 60.1907 9.58251 60.2116 9.4886 60.2527C9.39469 60.2938 9.31045 60.3541 9.24132 60.4298L4.21544 65.4387C3.5676 66.1426 3.2224 67.0729 3.25427 68.0291C3.28614 68.9852 3.69254 69.8905 4.38581 70.5497C5.0859 71.2689 6.04014 71.6849 7.04357 71.7082C7.5022 71.7222 7.95892 71.6434 8.38635 71.4765C8.81377 71.3096 9.20309 71.0581 9.53095 70.7371L14.5568 65.7112C14.7035 65.5643 14.7859 65.3652 14.7859 65.1575C14.7859 64.9499 14.7035 64.7508 14.5568 64.6038L10.3487 60.4298C10.2002 60.2792 9.99806 60.1934 9.7865 60.1913ZM16.6013 53.3766C16.3928 53.3776 16.1922 53.4566 16.039 53.598L12.6317 57.0054C12.4902 57.1586 12.4112 57.3591 12.4102 57.5676C12.4104 57.7712 12.4898 57.9667 12.6317 58.1128L16.8568 62.3379C16.928 62.4097 17.0131 62.4664 17.1068 62.5044C17.2004 62.5425 17.3009 62.5612 17.402 62.5594C17.5057 62.5616 17.6088 62.5431 17.7053 62.505C17.8018 62.467 17.8898 62.4102 17.9642 62.3379L21.3716 58.9306C21.449 58.8528 21.5089 58.7593 21.5471 58.6565C21.5853 58.5536 21.601 58.4437 21.5931 58.3343C21.5855 58.2258 21.5559 58.12 21.5061 58.0234C21.4563 57.9267 21.3873 57.8412 21.3034 57.7721C20.5197 57.1247 19.8212 56.4773 19.1568 55.8128C18.4923 55.1484 17.8109 54.4158 17.1975 53.6662C17.1314 53.579 17.0466 53.5077 16.9493 53.4576C16.852 53.4075 16.7447 53.3798 16.6353 53.3766H16.6013ZM42.2929 3.20296C38.4123 3.20196 34.5702 3.97263 30.9903 5.47014C27.4103 6.96765 24.1638 9.1621 21.4397 11.9258C16.687 16.7151 13.7115 22.9832 13.0051 29.6934C12.2988 36.4035 13.904 43.1538 17.5553 48.8277L18.1516 49.6625C18.6457 50.344 19.1397 51.0084 19.6679 51.6388C20.196 52.2692 20.7242 52.8825 21.3716 53.5469C22.019 54.2114 22.7516 54.8247 23.2797 55.2506C23.8078 55.6765 24.6086 56.3069 25.3071 56.801L26.1589 57.3972C30.0037 59.9042 34.3806 61.4791 38.9413 61.9966C43.5019 62.5141 48.1204 61.9599 52.4291 60.3782C56.7379 58.7964 60.618 56.2308 63.7606 52.8855C66.9032 49.5402 69.2215 45.5075 70.5312 41.1084C71.8408 36.7093 72.1055 32.0652 71.3043 27.5458C70.5031 23.0264 68.658 18.7563 65.916 15.0755C63.1739 11.3947 59.6105 8.4048 55.5094 6.34366C51.4083 4.28252 46.8828 3.20709 42.2929 3.20296Z" fill="#1389A2"/>
<path d="M42.2929 46.2553C41.8681 46.2553 41.4608 46.0866 41.1604 45.7862C40.8601 45.4859 40.6914 45.0786 40.6914 44.6538V41.8087C40.6897 41.647 40.638 41.4898 40.5434 41.3587C40.4489 41.2275 40.3161 41.1288 40.1632 41.0761C38.7423 40.5737 37.5448 39.5852 36.7822 38.2853C36.0196 36.9853 35.7412 35.4577 35.996 33.9723C36.2509 32.4869 37.0226 31.1394 38.1749 30.168C39.3272 29.1966 40.7858 28.6638 42.2929 28.6638C43.7999 28.6638 45.2585 29.1966 46.4108 30.168C47.5631 31.1394 48.3348 32.4869 48.5897 33.9723C48.8445 35.4577 48.5661 36.9853 47.8035 38.2853C47.0409 39.5852 45.8434 40.5737 44.4225 41.0761C44.2728 41.1316 44.1437 41.2315 44.0523 41.3624C43.961 41.4934 43.9118 41.649 43.9114 41.8087V44.6538C43.8866 45.0734 43.7077 45.469 43.4089 45.7646C43.1102 46.0603 42.7127 46.235 42.2929 46.2553ZM42.2929 31.9103C41.662 31.9103 41.0454 32.0975 40.5211 32.4484C39.9968 32.7992 39.5885 33.2978 39.3479 33.8809C39.1072 34.4641 39.0452 35.1055 39.1695 35.724C39.2938 36.3424 39.5989 36.9101 40.0462 37.3549C40.4934 37.7998 41.0627 38.1019 41.6818 38.2229C42.3009 38.3439 42.942 38.2784 43.5239 38.0346C44.1057 37.7909 44.6021 37.3799 44.9501 36.8537C45.2981 36.3276 45.4821 35.7099 45.4787 35.0791C45.4788 34.6615 45.3962 34.2481 45.2359 33.8625C45.0756 33.4769 44.8407 33.1268 44.5446 32.8323C44.2485 32.5379 43.8972 32.3048 43.5108 32.1466C43.1243 31.9883 42.7104 31.908 42.2929 31.9103Z" fill="#1389A2"/>
<path d="M42.2929 55.8303C39.8788 55.8347 37.4875 55.3637 35.2555 54.444C33.0235 53.5243 30.9944 52.174 29.2843 50.4702C27.5741 48.7663 26.2163 46.7423 25.2883 44.5137C24.3604 42.2851 23.8805 39.8956 23.876 37.4815V23.1195C23.876 22.6947 24.0447 22.2874 24.3451 21.987C24.6454 21.6867 25.0527 21.518 25.4775 21.518H30.2648C30.4727 21.518 30.672 21.4354 30.819 21.2885C30.966 21.1415 31.0485 20.9421 31.0485 20.7343C31.0485 17.7702 32.226 14.9275 34.3219 12.8315C36.4179 10.7356 39.2606 9.55811 42.2247 9.55811C45.1888 9.55811 48.0315 10.7356 50.1275 12.8315C52.2234 14.9275 53.4009 17.7702 53.4009 20.7343C53.4052 20.9408 53.4892 21.1376 53.6352 21.2836C53.7813 21.4297 53.9781 21.5136 54.1846 21.518H58.9719C59.3967 21.518 59.804 21.6867 60.1044 21.987C60.4047 22.2874 60.5734 22.6947 60.5734 23.1195V37.4815C60.5645 42.3334 58.6378 46.985 55.2134 50.4221C51.789 53.8593 47.1446 55.8033 42.2929 55.8303ZM27.9478 24.7209C27.74 24.7209 27.5406 24.8035 27.3937 24.9505C27.2467 25.0974 27.1641 25.2968 27.1641 25.5046V37.4304C27.0926 39.4608 27.4304 41.4849 28.1573 43.3821C28.8842 45.2793 29.9853 47.0108 31.3952 48.4737C32.8051 49.9365 34.4949 51.1007 36.364 51.8971C38.2331 52.6934 40.2433 53.1056 42.2749 53.109C44.3066 53.1124 46.3182 52.7071 48.19 51.917C50.0618 51.127 51.7555 49.9685 53.1703 48.5104C54.5851 47.0523 55.6921 45.3245 56.4254 43.4298C57.1587 41.5351 57.5033 39.5122 57.4386 37.4815V25.5557C57.4343 25.3492 57.3503 25.1524 57.2043 25.0064C57.0582 24.8603 56.8614 24.7764 56.6549 24.772L27.9478 24.7209ZM42.2929 12.7951C40.1812 12.7996 38.1575 13.6417 36.6659 15.1364C35.1743 16.6312 34.3366 18.6567 34.3366 20.7684C34.3366 20.8713 34.3569 20.9732 34.3963 21.0683C34.4357 21.1634 34.4934 21.2498 34.5662 21.3225C34.6389 21.3953 34.7253 21.453 34.8204 21.4924C34.9155 21.5318 35.0174 21.5521 35.1203 21.5521H49.4313C49.6408 21.5521 49.8419 21.4701 49.9916 21.3236C50.1413 21.1771 50.2276 20.9778 50.232 20.7684C50.2366 18.6551 49.4038 16.6261 47.9158 15.1254C46.4279 13.6247 44.4061 12.7745 42.2929 12.761V12.7951Z" fill="#1389A2"/>
</svg>
